# xmcd CD database file
#
# Track frame offsets:
#	150
#	17697
#	40728
#	62237
#	80685
#	101253
#	121564
#	135777
#	162959
#	190429
#	204577
#	216817
#	234151
#
# Disc length: 3354 seconds
#
# Revision: 0
# Processed by: cddbd v1.5.1PL2 Copyright (c) Steve Scherf et al.
# Submitted via: CDex 1.51
#
DISCID=a00d180d
DTITLE=Stacey Kent - Let Yourself Go
DYEAR=1999
DGENRE=Jazz
TTITLE0=01.let yourself go
TTITLE1=02.they can't take that away from
TTITLE2=03.i won't dance
TTITLE3=04.isn't this a lovely day
TTITLE4=05.they all laughed
TTITLE5=06.he loves and she loves
TTITLE6=07.shall we dance
TTITLE7=08.one for my baby
TTITLE8=09.'s  wonderful
TTITLE9=10.a fine romance
TTITLE10=11.i guess i'll have to change my
TTITLE11=12.i'm putting all my eggs in one
TTITLE12=13.by myself
EXTD=YEAR: 1999
EXTT0=
EXTT1=
EXTT2=
EXTT3=
EXTT4=
EXTT5=
EXTT6=
EXTT7=
EXTT8=
EXTT9=
EXTT10=
EXTT11=
EXTT12=
PLAYORDER=
